<?xml version="1.0" standalone="no"?>
<!DOCTYPE svg PUBLIC "-//W3C//DTD SVG 20010904//EN"
 "http://www.w3.org/TR/2001/REC-SVG-20010904/DTD/svg10.dtd">
<svg version="1.0" xmlns="http://www.w3.org/2000/svg"
 width="134.000000pt" height="134.000000pt" viewBox="0 0 134.000000 134.000000"
 preserveAspectRatio="xMidYMid meet">
<metadata>
Created by potrace 1.14, written by Peter Selinger 2001-2017
</metadata>
<g transform="translate(0.000000,134.000000) scale(0.100000,-0.100000)"
fill="#000000" stroke="none">
<path d="M554 1031 c-55 -31 -112 -64 -127 -74 l-27 -17 0 -149 c0 -82 3 -156
6 -165 9 -24 33 -19 97 19 32 19 60 35 63 35 3 0 22 11 42 25 42 28 62 32 62
10 0 -18 21 -29 94 -49 41 -10 65 -12 78 -5 29 15 5 46 -45 59 -74 19 -77 21
-77 38 0 11 29 32 79 60 44 23 82 42 85 42 3 0 6 -46 6 -102 l0 -103 -108 -55
c-104 -54 -122 -70 -108 -105 4 -11 33 0 123 44 65 33 127 68 137 80 17 18 19
37 19 165 0 79 -4 149 -7 155 -14 21 -49 11 -148 -45 -55 -31 -101 -54 -102
-52 -2 1 -9 13 -15 26 -38 72 -203 86 -189 16 3 -16 10 -18 52 -16 39 3 52 0
72 -19 13 -12 24 -28 24 -34 0 -12 -164 -115 -182 -115 -4 0 -8 45 -8 99 0
115 -10 103 143 185 79 43 87 50 87 77 0 17 -5 29 -12 28 -7 -1 -58 -27 -114
-58z"/>
<path d="M156 414 c-9 -24 -7 -104 3 -104 5 0 12 23 16 51 5 39 10 49 22 45 8
-3 17 -6 19 -6 13 0 1 -50 -16 -65 -23 -21 -26 -35 -6 -35 15 0 39 32 50 67
14 43 -72 89 -88 47z"/>
<path d="M738 423 c-29 -4 -39 -23 -13 -23 12 0 15 -13 15 -55 0 -30 5 -55 10
-55 6 0 10 22 10 49 0 31 5 53 15 61 14 12 12 32 -3 29 -4 -1 -19 -4 -34 -6z"/>
<path d="M286 358 c-3 -34 -4 -64 0 -67 9 -9 24 23 24 54 l0 30 27 -40 c35
-53 33 -51 43 -35 13 20 13 127 1 115 -5 -6 -11 -26 -13 -45 l-3 -35 -28 43
c-15 23 -31 42 -36 42 -4 0 -11 -28 -15 -62z"/>
<path d="M446 393 c-19 -39 -30 -93 -17 -93 5 0 12 9 16 19 6 21 43 18 52 -5
11 -28 24 -13 18 19 -9 41 -33 87 -45 87 -5 0 -16 -12 -24 -27z m34 -29 c0 -8
-4 -12 -10 -9 -5 3 -10 10 -10 16 0 5 5 9 10 9 6 0 10 -7 10 -16z"/>
<path d="M638 413 c-22 -6 -23 -22 -2 -51 16 -24 12 -42 -12 -42 -8 0 -14 -4
-14 -10 0 -18 49 -11 60 9 13 26 13 27 -11 49 -17 17 -18 20 -5 25 9 4 16 11
16 17 0 10 -3 11 -32 3z"/>
<path d="M810 376 c0 -34 5 -48 21 -60 12 -8 27 -12 34 -10 27 11 49 104 25
104 -5 0 -10 -10 -10 -23 0 -30 -24 -62 -38 -53 -7 4 -12 25 -12 47 0 21 -4
39 -10 39 -5 0 -10 -20 -10 -44z"/>
<path d="M937 413 c-12 -11 -8 -113 4 -113 7 0 27 9 45 21 38 23 46 63 17 85
-19 14 -55 18 -66 7z m53 -28 c10 -13 10 -19 -5 -35 -26 -29 -35 -25 -35 15 0
38 18 47 40 20z"/>
<path d="M1060 360 c0 -33 4 -60 10 -60 6 0 10 27 10 60 0 33 -4 60 -10 60 -6
0 -10 -27 -10 -60z"/>
<path d="M1141 396 c-7 -8 -11 -34 -9 -58 3 -37 6 -43 27 -46 47 -7 70 67 33
101 -23 21 -36 21 -51 3z m49 -45 c0 -18 -18 -41 -32 -41 -10 0 -11 64 -1 73
9 10 33 -13 33 -32z"/>
</g>
</svg>
